<svg width="18" height="20" viewBox="0 0 18 20" fill="none" xmlns="http://www.w3.org/2000/svg">
<path d="M9 0.25C6.37665 0.25 4.25 2.37665 4.25 5C4.25 7.62335 6.37665 9.75 9 9.75C11.6234 9.75 13.75 7.62335 13.75 5C13.75 2.37665 11.6234 0.25 9 0.25Z" fill="url(#paint0_linear_28_204)"/>
<path d="M9 12.25C6.72474 12.25 4.63146 12.5946 3.0798 13.1764C2.30674 13.4663 1.62904 13.8296 1.13112 14.2711C0.634084 14.7117 0.25 15.2943 0.25 16C0.25 16.7057 0.634084 17.2883 1.13112 17.7289C1.62904 18.1704 2.30674 18.5337 3.0798 18.8236C4.63146 19.4054 6.72474 19.75 9 19.75C11.2753 19.75 13.3685 19.4054 14.9202 18.8236C15.6933 18.5337 16.371 18.1704 16.8689 17.7289C17.3659 17.2883 17.75 16.7057 17.75 16C17.75 15.2943 17.3659 14.7117 16.8689 14.2711C16.371 13.8296 15.6933 13.4663 14.9202 13.1764C13.3685 12.5946 11.2753 12.25 9 12.25Z" fill="url(#paint1_linear_28_204)"/>
<defs>
<linearGradient id="paint0_linear_28_204" x1="9" y1="0.25" x2="9" y2="19.75" gradientUnits="userSpaceOnUse">
<stop stop-color="#606060"/>
<stop offset="1" stop-color="#272727"/>
</linearGradient>
<linearGradient id="paint1_linear_28_204" x1="9" y1="0.25" x2="9" y2="19.75" gradientUnits="userSpaceOnUse">
<stop stop-color="#606060"/>
<stop offset="1" stop-color="#272727"/>
</linearGradient>
</defs>
</svg>
