<svg width="9" height="9" viewBox="0 0 9 9" fill="none" xmlns="http://www.w3.org/2000/svg">
<path fill-rule="evenodd" clip-rule="evenodd" d="M6.08325 4.00716V2.92383C6.08325 2.23347 5.52361 1.67383 4.83325 1.67383H4.16659C3.47623 1.67383 2.91659 2.23347 2.91659 2.92383V4.00716H2.49992C1.99366 4.00716 1.58325 4.41757 1.58325 4.92383V6.92383C1.58325 7.43009 1.99366 7.84049 2.49992 7.84049H6.49992C7.00618 7.84049 7.41658 7.43009 7.41658 6.92383V4.92383C7.41658 4.41757 7.00618 4.00716 6.49992 4.00716H6.08325ZM4.16659 2.17383C3.75237 2.17383 3.41659 2.50961 3.41659 2.92383V4.00716H5.58325V2.92383C5.58325 2.50961 5.24747 2.17383 4.83325 2.17383H4.16659ZM4.74992 5.59049C4.74992 5.45242 4.63799 5.34049 4.49992 5.34049C4.36185 5.34049 4.24992 5.45242 4.24992 5.59049V6.25716C4.24992 6.39523 4.36185 6.50716 4.49992 6.50716C4.63799 6.50716 4.74992 6.39523 4.74992 6.25716V5.59049Z" fill="#858585"/>
</svg>
